<?xml version="1.0" standalone="no"?><!DOCTYPE svg PUBLIC "-//W3C//DTD SVG 1.1//EN" "http://www.w3.org/Graphics/SVG/1.1/DTD/svg11.dtd"><svg t="1568370636881" class="icon" viewBox="0 0 3174 1024" version="1.1" xmlns="http://www.w3.org/2000/svg" p-id="644" width="198.375" height="64" xmlns:xlink="http://www.w3.org/1999/xlink"><defs><style type="text/css"></style></defs><path d="M1436.4205 85.116634c45.332747-100.268501-12.490052-62.655016-12.490052-62.655016s-202.175041 331.600648-700.261942 331.600648c-78.892084 0-150.167283-8.45638-214.317011-22.645898-28.010478-93.470636-65.828718-164.991542-123.303433-175.782128 0 0 2.49801 58.232309 7.330227 141.567576C136.656528 201.315071 29.69254 17.752255 29.69254 17.752255S-14.084069-37.060647 4.671485 45.967487C18.901954 108.929635 126.705437 357.584052 405.110748 474.007718c11.875787 157.292756 29.177581 325.355622 51.291116 381.90894C501.714136 971.848913 557.960321 982.823779 728.357394 982.823779c170.356122 0 262.598228-14.107616 287.598808-112.799504 25.021055-98.691888 51.598248-322.734758 48.465498-333.689149-3.132751-10.974866 1.22853-38.391554-45.332747 1.556138-61.487913 52.744876-127.132351 266.345244-144.843654 286.697886-18.878407 21.704025-154.221431 53.789126-231.844035 24.038232-41.749535-30.037552-62.204555-178.341565-90.481214-330.249265 53.09296 10.462978 110.731479 16.380396 173.325069 16.380396 520.487093 0 665.842635-349.373378 711.175381-449.641879z m201.069365 396.262263c-18.59175-10.196797-39.45628-17.875107-62.573114-23.096359a317.841115 317.841115 0 0 0-139.90906 0c-23.13731 5.221251-44.00184 12.899562-62.573114 23.096359-18.59175 10.176321-33.559337 23.075883-44.943712 38.719161-11.3639 15.622803-17.056088 33.641239-17.056088 53.993882v267.164264c0 20.86453 5.692188 38.985343 17.056088 54.36244 11.384375 15.397573 26.351963 28.194757 44.943712 38.371078 18.571274 10.196797 39.415329 17.895583 62.573114 23.096359a317.574934 317.574934 0 0 0 84.604747 7.45308c4.13605 18.571274 12.18292 32.351283 20.004559 41.851913 9.09112 11.056768 22.563996 17.383696 36.794465 17.383696h98.016197c7.801164 0 14.128092-6.388355 14.128091-14.250945v-57.372338a14.066665 14.066665 0 0 0-14.230469-14.250945c-7.780688 0.22523-17.301794-0.327608-24.857251-3.378457a14.947112 14.947112 0 0 1-6.941193-5.876467c22.297814-15.745656 39.886265-35.504509 39.886265-35.504509 11.3639-14.68093 17.056088-31.982724 17.056087-51.86443V574.112415c0-20.373118-5.692188-38.371078-17.056087-54.014357-11.384375-15.643278-26.351963-28.542841-44.943713-38.719161zM1597.091712 849.876387v1.433285s-1.351383 43.367099-55.795724 46.786507c-7.125472 1.883746-15.827558 2.825618-26.106257 2.825618-22.154486 0-41.360501-4.13605-57.577093-12.40815-16.216592-8.251625-24.324889-21.130711-24.324889-38.63726V583.387815c0-17.465598 8.108296-30.344684 24.324889-38.616785C1473.82923 536.49893 1493.035245 532.36288 1515.189731 532.36288c22.134011 0 41.340025 4.13605 57.556617 12.40815 16.216592 8.2721 24.345364 21.151187 24.345364 38.616785v266.488572zM1822.322162 450.460899h122.852972v511.887384h-122.852972V450.460899z m517.415768 308.422387h-2.313731L2160.290689 450.460899H2047.552611v511.887384h117.324589V654.642539h2.313731L2346.638172 962.348283H2457.062519V450.460899h-117.324589v308.422387zM2559.439996 450.460899h122.852972v511.887384h-122.852972V450.460899z m494.012277 0v386.413549c0 18.059387-7.064046 31.368459-21.212613 39.927216-14.148567 8.558757-31.839395 12.838136-53.052009 12.838135-21.212613 0-38.903441-4.299854-53.052008-12.838135-14.148567-8.558757-21.212613-21.867829-21.212613-39.927216V450.460899H2784.670445v393.539021c0 16.646578 5.098398 32.085101 15.315671 46.336046 10.217272 14.27142 24.161085 26.740997 41.851912 37.429206 17.690828 10.708684 38.330127 19.144588 61.897423 25.307712A296.894683 296.894683 0 0 0 2979.187651 962.348283c26.700046 0 51.86443-3.0918 75.452201-9.275399 23.567295-6.163124 44.206595-14.599028 61.897422-25.307712 17.670353-10.688209 31.614165-23.157785 41.851913-37.429206 10.196797-14.250945 15.315671-29.689468 15.315671-46.336046V450.460899h-120.252585z" fill="#0681FF" p-id="645"></path></svg>